<?xml version="1.0" encoding="utf-8"?>
<!-- Generator: Adobe Illustrator 25.0.1, SVG Export Plug-In . SVG Version: 6.00 Build 0)  -->
<svg version="1.1" id="Layer_1" xmlns="http://www.w3.org/2000/svg" xmlns:xlink="http://www.w3.org/1999/xlink" x="0px" y="0px"
	 viewBox="0 0 213.89 58.21" style="enable-background:new 0 0 213.89 58.21;" xml:space="preserve">
<style type="text/css">
	.st0{fill:#FFFFFF;}
</style>
<g>
	<g>
		<g>
			<g>
				<path class="st0" d="M50.29,36.97V18.22h12.75v3.62h-8.3v4.76h7.49v3.55h-7.49v6.82H50.29z"/>
				<path class="st0" d="M67.55,21.25c-0.62,0-1.15-0.21-1.6-0.62c-0.44-0.42-0.67-0.91-0.67-1.49c0-0.59,0.22-1.09,0.67-1.5
					c0.44-0.41,0.98-0.62,1.6-0.62c0.63,0,1.17,0.21,1.61,0.62c0.44,0.41,0.67,0.92,0.67,1.51c0,0.58-0.22,1.07-0.67,1.49
					C68.72,21.04,68.18,21.25,67.55,21.25z M65.36,36.97V22.9h4.39v14.07H65.36z"/>
				<path class="st0" d="M79.14,42.53c-1.22,0-2.29-0.16-3.21-0.47c-0.91-0.31-1.65-0.74-2.22-1.3c-0.57-0.55-0.93-1.2-1.1-1.92
					l3.81-0.78c0.08,0.25,0.24,0.48,0.47,0.7s0.52,0.39,0.89,0.52s0.81,0.2,1.33,0.2c0.9,0,1.59-0.2,2.07-0.6
					c0.48-0.4,0.72-1.02,0.72-1.86v-2.49h-0.34c-0.17,0.42-0.42,0.8-0.75,1.15c-0.33,0.34-0.75,0.62-1.26,0.82
					c-0.51,0.2-1.11,0.3-1.81,0.3c-1.03,0-1.97-0.24-2.82-0.72c-0.85-0.48-1.53-1.23-2.04-2.24s-0.77-2.3-0.77-3.88
					c0-1.64,0.26-3,0.79-4.06c0.53-1.07,1.22-1.86,2.07-2.37c0.85-0.52,1.77-0.77,2.76-0.77c0.75,0,1.39,0.12,1.92,0.38
					c0.53,0.25,0.97,0.58,1.32,0.98s0.61,0.81,0.79,1.24h0.13V22.9h4.34v13.75c0,1.29-0.3,2.37-0.9,3.25
					c-0.6,0.87-1.43,1.53-2.5,1.97S80.54,42.53,79.14,42.53z M79.25,33.55c0.56,0,1.04-0.14,1.43-0.43c0.39-0.29,0.7-0.7,0.91-1.25
					c0.21-0.55,0.31-1.2,0.31-1.96c0-0.77-0.1-1.44-0.31-2s-0.51-1-0.9-1.3c-0.39-0.31-0.87-0.46-1.44-0.46
					c-0.56,0-1.04,0.16-1.43,0.47c-0.39,0.31-0.69,0.75-0.89,1.32c-0.2,0.56-0.3,1.22-0.3,1.98c0,0.75,0.1,1.4,0.3,1.95
					c0.2,0.54,0.5,0.96,0.89,1.25C78.22,33.41,78.69,33.55,79.25,33.55z"/>
				<path class="st0" d="M94.78,36.97V18.22h12.75v3.62h-8.3v4.76h7.49v3.55h-7.49v6.82H94.78z"/>
				<path class="st0" d="M112.04,21.25c-0.62,0-1.15-0.21-1.6-0.62c-0.44-0.42-0.67-0.91-0.67-1.49c0-0.59,0.22-1.09,0.67-1.5
					c0.44-0.41,0.98-0.62,1.6-0.62c0.63,0,1.17,0.21,1.61,0.62c0.44,0.41,0.67,0.92,0.67,1.51c0,0.58-0.22,1.07-0.67,1.49
					C113.21,21.04,112.67,21.25,112.04,21.25z M109.85,36.97V22.9h4.39v14.07H109.85z"/>
				<path class="st0" d="M121.54,28.94v8.03h-4.39V22.9h4.13l0.09,3.55h-0.19c0.34-1.12,0.88-2.01,1.62-2.7
					c0.73-0.68,1.72-1.03,2.96-1.03c0.98,0,1.84,0.22,2.57,0.65c0.73,0.44,1.3,1.05,1.7,1.85c0.4,0.8,0.6,1.72,0.6,2.78v8.96h-4.39
					v-8.1c0-0.79-0.2-1.41-0.6-1.86c-0.4-0.45-0.96-0.67-1.69-0.67c-0.47,0-0.89,0.1-1.25,0.31c-0.36,0.21-0.65,0.5-0.85,0.89
					C121.64,27.91,121.54,28.38,121.54,28.94z"/>
				<path class="st0" d="M137.46,37.22c-0.9,0-1.7-0.15-2.4-0.46c-0.7-0.31-1.25-0.77-1.64-1.38c-0.39-0.62-0.59-1.39-0.59-2.31
					c0-0.78,0.14-1.44,0.41-1.98s0.65-0.97,1.14-1.31c0.49-0.34,1.04-0.59,1.67-0.77c0.63-0.18,1.3-0.29,2.01-0.35
					c0.8-0.07,1.44-0.14,1.92-0.22c0.49-0.08,0.84-0.2,1.07-0.36c0.23-0.16,0.34-0.38,0.34-0.67v-0.05c0-0.33-0.08-0.6-0.23-0.83
					c-0.15-0.23-0.37-0.4-0.65-0.52c-0.29-0.12-0.63-0.18-1.03-0.18s-0.76,0.06-1.08,0.18c-0.31,0.12-0.57,0.29-0.77,0.5
					c-0.2,0.22-0.34,0.47-0.43,0.77l-3.98-0.52c0.18-0.8,0.55-1.51,1.09-2.12c0.54-0.61,1.25-1.08,2.13-1.42
					c0.88-0.34,1.9-0.51,3.08-0.51c0.87,0,1.69,0.1,2.45,0.31c0.76,0.21,1.42,0.51,1.99,0.91s1.01,0.89,1.33,1.47
					c0.32,0.58,0.48,1.25,0.48,2.01v9.55h-4.13v-1.98h-0.11c-0.25,0.49-0.57,0.89-0.96,1.22c-0.39,0.33-0.84,0.58-1.36,0.75
					S138.11,37.22,137.46,37.22z M138.79,34.31c0.5,0,0.94-0.1,1.34-0.3s0.72-0.48,0.95-0.83c0.24-0.35,0.35-0.76,0.35-1.22v-1.35
					c-0.13,0.07-0.28,0.13-0.47,0.19c-0.19,0.06-0.4,0.11-0.62,0.16c-0.23,0.05-0.45,0.09-0.68,0.13c-0.23,0.04-0.44,0.07-0.65,0.11
					c-0.43,0.06-0.79,0.16-1.09,0.3c-0.3,0.14-0.53,0.33-0.69,0.55c-0.16,0.23-0.24,0.5-0.24,0.82c0,0.31,0.08,0.57,0.24,0.79
					c0.16,0.21,0.37,0.38,0.64,0.49S138.44,34.31,138.79,34.31z"/>
				<path class="st0" d="M153.08,28.94v8.03h-4.39V22.9h4.13l0.09,3.55h-0.19c0.34-1.12,0.88-2.01,1.62-2.7
					c0.73-0.68,1.72-1.03,2.96-1.03c0.98,0,1.84,0.22,2.57,0.65c0.73,0.44,1.3,1.05,1.7,1.85c0.4,0.8,0.6,1.72,0.6,2.78v8.96h-4.39
					v-8.1c0-0.79-0.2-1.41-0.6-1.86c-0.4-0.45-0.96-0.67-1.69-0.67c-0.47,0-0.89,0.1-1.25,0.31c-0.36,0.21-0.65,0.5-0.85,0.89
					C153.18,27.91,153.08,28.38,153.08,28.94z"/>
				<path class="st0" d="M171.58,37.23c-1.47,0-2.73-0.3-3.79-0.91c-1.06-0.61-1.87-1.46-2.43-2.54c-0.57-1.09-0.85-2.35-0.85-3.79
					c0-1.45,0.28-2.72,0.85-3.81c0.57-1.09,1.38-1.93,2.43-2.54c1.06-0.61,2.32-0.91,3.79-0.91c0.9,0,1.72,0.12,2.47,0.35
					c0.75,0.24,1.4,0.57,1.96,1c0.56,0.43,1.02,0.96,1.37,1.57c0.35,0.62,0.58,1.31,0.69,2.07l-4.05,0.68
					c-0.07-0.37-0.17-0.7-0.31-0.98c-0.14-0.29-0.31-0.53-0.5-0.73s-0.43-0.35-0.69-0.45c-0.26-0.1-0.56-0.15-0.88-0.15
					c-0.56,0-1.04,0.15-1.43,0.46c-0.39,0.31-0.69,0.75-0.9,1.33c-0.21,0.58-0.31,1.28-0.31,2.08c0,0.81,0.1,1.5,0.31,2.09
					c0.21,0.59,0.51,1.04,0.9,1.35c0.39,0.31,0.87,0.47,1.43,0.47c0.33,0,0.62-0.05,0.88-0.16c0.26-0.1,0.49-0.26,0.7-0.47
					c0.21-0.21,0.38-0.46,0.52-0.75c0.14-0.3,0.24-0.63,0.3-1.01l4.05,0.65c-0.11,0.79-0.34,1.5-0.69,2.12
					c-0.35,0.62-0.8,1.16-1.37,1.6c-0.56,0.44-1.22,0.78-1.97,1.02C173.31,37.11,172.48,37.23,171.58,37.23z"/>
				<path class="st0" d="M186.95,37.23c-1.47,0-2.73-0.29-3.8-0.87s-1.88-1.42-2.45-2.5c-0.57-1.08-0.85-2.37-0.85-3.87
					c0-1.44,0.28-2.71,0.85-3.8c0.57-1.09,1.37-1.94,2.41-2.55s2.26-0.91,3.67-0.91c0.99,0,1.9,0.16,2.72,0.46
					c0.83,0.31,1.54,0.77,2.15,1.38c0.61,0.61,1.08,1.36,1.41,2.25c0.33,0.89,0.5,1.92,0.5,3.08V31h-12.16v-2.55h10.07l-2.05,0.6
					c0-0.65-0.1-1.22-0.3-1.69s-0.49-0.83-0.88-1.08s-0.86-0.38-1.43-0.38c-0.57,0-1.05,0.13-1.45,0.38s-0.69,0.61-0.9,1.07
					c-0.21,0.46-0.31,0.99-0.31,1.6v1.84c0,0.72,0.12,1.32,0.36,1.81s0.57,0.84,1,1.08c0.43,0.24,0.93,0.36,1.5,0.36
					c0.39,0,0.75-0.05,1.08-0.16c0.32-0.11,0.6-0.27,0.83-0.49c0.23-0.22,0.4-0.48,0.52-0.79l3.91,0.64
					c-0.23,0.81-0.64,1.51-1.21,2.11s-1.3,1.06-2.18,1.39S188.09,37.23,186.95,37.23z"/>
			</g>
		</g>
		<g>
			<path class="st0" d="M42.26,15.94C41.72,44.16,22.41,41.2,19.69,41.23c-0.36-1.57-0.6-3.02-0.72-4.36
				c0.88-0.63,1.79-1.18,2.7-1.64c0,1.35,0.15,2.43,0.15,2.95c16.82,1.38,17.36-19.41,17.36-19.41
				c-19.73-3.46-23.7,9.39-24.35,16.99c0,0,0,0,0,0s0,0,0,0.02c0,0,0,0.01,0,0.02v0.01c0,0,0,0.01,0,0.02c-0.25,2.99,0,5.15,0,5.15
				s0,0-2.83,0.27C9.97,8,42.26,15.94,42.26,15.94z"/>
			<path class="st0" d="M34.18,24.14c-8.31,0.38-11.19,4.11-12.12,7.67c-1.16,0.48-2.23,1-3.17,1.49
				c0.89-13.42,15.29-11.98,15.29-11.98S34.45,23.2,34.18,24.14z"/>
			<path class="st0" d="M33.36,29.27c0,2.83,0,2.83,0,2.83s-5.6-0.03-11.15,2.81c-0.91,0.47-1.82,1.01-2.7,1.64
				c-1.5,1.08-2.93,2.42-4.15,4.09c-0.05-3.69-0.02-4.86,0-5.14c0-0.01,0-0.01,0-0.02c0-0.01,0-0.01,0-0.02v-0.01
				c0-0.01,0-0.01,0-0.02c0-0.01,0-0.01,0-0.02c0.06-0.04,1.63-1.17,4.09-2.45c0.94-0.49,2.01-1,3.17-1.49
				C25.76,30.19,29.58,29.1,33.36,29.27z"/>
		</g>
	</g>
</g>
</svg>
