<?xml version="1.0" standalone="no"?>
<svg xmlns:xlink="http://www.w3.org/1999/xlink" id="wave" style="transform:rotate(180deg); transition: 0.3s" viewBox="0 0 1440 100" version="1.1" xmlns="http://www.w3.org/2000/svg"><defs><linearGradient id="sw-gradient-0" x1="0" x2="0" y1="1" y2="0"><stop stop-color="rgba(239, 239, 239, 1)" offset="0%"/><stop stop-color="rgba(239, 239, 239, 1)" offset="100%"/></linearGradient></defs><path style="transform:translate(0, 0px); opacity:1" fill="url(#sw-gradient-0)" d="M0,40L20,38.3C40,37,80,33,120,30C160,27,200,23,240,21.7C280,20,320,20,360,28.3C400,37,440,53,480,53.3C520,53,560,37,600,36.7C640,37,680,53,720,58.3C760,63,800,57,840,58.3C880,60,920,70,960,66.7C1000,63,1040,47,1080,40C1120,33,1160,37,1200,43.3C1240,50,1280,60,1320,53.3C1360,47,1400,23,1440,25C1480,27,1520,53,1560,56.7C1600,60,1640,40,1680,33.3C1720,27,1760,33,1800,31.7C1840,30,1880,20,1920,20C1960,20,2000,30,2040,31.7C2080,33,2120,27,2160,30C2200,33,2240,47,2280,51.7C2320,57,2360,53,2400,50C2440,47,2480,43,2520,40C2560,37,2600,33,2640,35C2680,37,2720,43,2760,40C2800,37,2840,23,2860,16.7L2880,10L2880,100L2860,100C2840,100,2800,100,2760,100C2720,100,2680,100,2640,100C2600,100,2560,100,2520,100C2480,100,2440,100,2400,100C2360,100,2320,100,2280,100C2240,100,2200,100,2160,100C2120,100,2080,100,2040,100C2000,100,1960,100,1920,100C1880,100,1840,100,1800,100C1760,100,1720,100,1680,100C1640,100,1600,100,1560,100C1520,100,1480,100,1440,100C1400,100,1360,100,1320,100C1280,100,1240,100,1200,100C1160,100,1120,100,1080,100C1040,100,1000,100,960,100C920,100,880,100,840,100C800,100,760,100,720,100C680,100,640,100,600,100C560,100,520,100,480,100C440,100,400,100,360,100C320,100,280,100,240,100C200,100,160,100,120,100C80,100,40,100,20,100L0,100Z"/></svg>